<svg fill="none" height="120" viewBox="0 0 321 120" width="321" xmlns="http://www.w3.org/2000/svg"><g fill="#000"><path d="m51.485 108.592c-14.1278 0-35.0931-10.4602-35.0931-39.2139v-67.74102h-16.3919v68.91832c0 15.0334 4.66399 27.6669 13.4486 36.5426 8.0601 8.105 19.2899 12.588 31.5611 12.588 24.8142 0 39.3043-22.2787 39.8024-37.7197l-.6792-.1358c-4.7093 13.1316-18.2032 26.7165-32.6932 26.7165z"/><path d="m70.5484 1.63707 13.4486 72.76723.6792-.0453 4.2112-72.35968v-.36225z"/><path d="m291.975 52.1259c-13.177-7.6526-25.584-14.8523-25.584-29.1613 0-7.7884 3.622-13.44854 9.871-20.55772l-.407-.58866c-10.46 3.98476-22.641 14.26368-22.641 30.20268 0 17.7956 14.852 26.3991 29.206 34.7762 13.087 7.6072 25.449 14.807 25.449 28.3461 0 12.1358-10.098 19.8788-16.121 23.4108l.272.634c18.158-4.076 28.98-15.939 28.98-31.7426 0-18.4296-14.762-27.033-29.07-35.3195z"/><path d="m281.469 1.63716v-.815065l1.042-.181125s16.98-2.94329 33.191 4.12061l.227.09056v24.18026h-.816s-10.233-23.41047-33.689-27.39524z"/><path d="m250.678 85.8607c13.584 30.3383 36.044 33.0103 36.044 33.0103v.815c-23.818-.226-37.04-7.834-37.04-7.834v-25.9913z"/><path d="m224.526.0179028-14.088 14.0882972 14.088 14.0883 14.088-14.0883z"/><path d="m232.611 117.648h-16.121v-71.5898l16.121-8.4223z"/><path d="m135.844 37.9529c-4.256-5.2074-6.339-10.5959-6.339-16.3919 0-8.6488 3.758-15.07872 11.864-20.19552l-.272-.633939c-15.35 2.852729-25.312 13.629659-25.312 27.440559 0 11.1845 6.656 20.4219 12.452 27.1688l54.338 62.1711.09.136h21.509l-68.375-79.6951z"/><path d="m179.405 43.9301-4.483 33.146h.77l23.727-32.331v-.815z"/><path d="m170.258 4.03715v23.09355h-.453l-22.459-26.580218v-.4980954s10.912-.8150656 22.912 3.9847634z"/><path d="m141.55 106.781c-15.487 1.132-29.071-10.551-30.203-26.0372-.725-10.0525 3.985-19.7427 12.317-25.4029l-.634-.7245c-15.849 3.532-26.8523 18.2484-25.675 34.5045 1.3584 18.1121 17.162 31.7871 35.274 30.4291 12.86-.951 23.954-9.328 28.437-21.3729l-.634-.7245c-4.89 5.4794-11.592 8.7844-18.882 9.2824z"/></g></svg>